#!OML:ASF H:\Terrain\Patient Classification 1\Terrain2\Thursday\justin.ASF
:FULLY-SPECIFIED
:DEGREES
1172
root 24.4468 23.5334 9.79919 485.859 -85.2328 241.942
lowerback 13.9817 0.909538 -0.820828
upperback 2.50839 1.07805 2.10026
thorax -5.24495 0.503699 2.48496
lowerneck -16.5674 -1.44101 -7.9992
upperneck 29.9129 -2.34563 6.33359
head 12.8948 -1.34317 3.42105
rclavicle -6.84565e-015 -2.12824e-014
rhumerus -27.2035 3.16947 -87.9575
rradius 43.5949
rwrist -15.6851
rhand -20.7551 11.9703
rfingers 7.12502
rthumb 5.61079 -17.9355
lclavicle -6.84565e-015 -2.12824e-014
lhumerus -26.1148 0.680168 86.4153
lradius 35.8195
lwrist 3.98033
lhand -22.1447 18.6893
lfingers 7.12502
lthumb 4.26906 48.6263
rfemur -26.975 -8.02478 25.0605
rtibia 71.8135
rfoot -11.4799 -8.98154
rtoes 5.56495
lfemur -30.9404 4.63812 -17.5998
ltibia 44.9341
lfoot -14.4771 -14.3932
ltoes 22.9324
1173
root 24.375 23.6096 9.80137 485.198 -85.2667 242.513
lowerback 13.9767 0.928834 -0.800199
upperback 2.4477 1.11227 2.14714
thorax -5.3086 0.522315 2.5165
lowerneck -16.3251 -1.48427 -8.00924
upperneck 29.8901 -2.41863 6.29177
head 12.8405 -1.38718 3.39267
rclavicle 7.82093e-015 4.31735e-015
rhumerus -27.3449 3.11843 -87.7417
rradius 43.6762
rwrist -15.6131
rhand -20.5332 12.2294
rfingers 7.12502
rthumb 5.82508 -17.6705
lclavicle 7.82093e-015 4.31735e-015
lhumerus -26.158 0.042713 86.6871
lradius 36.1265
lwrist 4.74875
lhand -22.9332 19.2661
lfingers 7.12502
lthumb 3.50765 49.217
rfemur -27.705 -7.72078 25.1892
rtibia 71.9397
rfoot -12.4723 -8.16793
rtoes 4.26255
lfemur -29.691 4.26397 -17.5166
ltibia 43.373
lfoot -14.0237 -14.2188
ltoes 24.6947
1174
root 24.3017 23.6848 9.80343 486.735 -85.5596 240.82
lowerback 13.9914 0.917663 -1.09415
upperback 2.42814 1.05185 2.0568
thorax -5.33787 0.498734 2.59886
lowerneck -16.1196 -1.43574 -7.61117
upperneck 29.8539 -2.3511 5.86086
head 12.7657 -1.37173 3.16221
rclavicle -1.83255e-016 -1.04362e-015
rhumerus -27.4909 3.29944 -87.821
rradius 43.817
rwrist -15.9137
rhand -21.2624 12.1256
rfingers 7.12502
rthumb 5.12104 -17.7925
lclavicle -1.83255e-016 -1.04362e-015
lhumerus -26.2596 -0.80582 86.8905
lradius 36.6621
lwrist 6.21055
lhand -24.02 20.2086
lfingers 7.12502
lthumb 2.45804 50.1742
rfemur -28.3351 -7.53908 24.9108
rtibia 71.8928
rfoot -13.399 -7.11309
rtoes 3.84902
lfemur -28.387 3.95203 -17.8253
ltibia 41.8838
lfoot -13.591 -13.8697
ltoes 25.6587
1175
root 24.2256 23.7575 9.80584 488.232 -85.8491 239.218
lowerback 13.9397 0.873899 -1.33677
upperback 2.40889 0.954055 1.91952
thorax -5.32601 0.455583 2.60957
lowerneck -16.1326 -1.40674 -7.39719
upperneck 29.9196 -2.34043 5.73518
head 12.7901 -1.36147 3.07873
rclavicle 9.31803e-017 -3.46631e-015
rhumerus -27.6403 3.67777 -88.0731
rradius 44.069
rwrist -16.686
rhand -22.456 11.7
rfingers 7.12502
rthumb 3.96843 -18.2428
lclavicle 9.31803e-017 -3.46631e-015
lhumerus -26.2354 -1.35188 86.8947
lradius 36.9411
lwrist 6.87106
lhand -24.3292 20.4073
lfingers 7.12502
lthumb 2.15939 50.3761
rfemur -28.9163 -7.3005 24.6519
rtibia 71.6188
rfoot -14.2047 -6.0006
rtoes 3.14541
lfemur -27.1963 3.73654 -18.1481
ltibia 40.499
lfoot -13.5498 -13.453
ltoes 24.1983
1176
root 24.1514 23.8179 9.80197 488.168 -85.9222 239.279
lowerback 13.8018 0.85024 -1.34825
upperback 2.36162 0.921444 1.83537
thorax -5.29705 0.441082 2.53343
lowerneck -16.3022 -1.48818 -7.70696
upperneck 30.1515 -2.51371 6.17132
head 12.9462 -1.42141 3.28363
rclavicle 3.09359e-015 -1.29459e-014
rhumerus -27.759 3.85444 -88.1352
rradius 44.1671
rwrist -16.8179
rhand -22.4591 11.9721
rfingers 7.12502
rthumb 3.96548 -17.9707
lclavicle 3.09359e-015 -1.29459e-014
lhumerus -26.1455 -1.68465 86.7604
lradius 36.954
lwrist 6.63156
lhand -24.1524 20.1897
lfingers 7.12502
lthumb 2.33021 50.1567
rfemur -29.5576 -6.92986 24.7633
rtibia 71.1553
rfoot -14.8468 -5.23975
rtoes 1.02027
lfemur -26.2055 3.59561 -18.1685
ltibia 39.2235
lfoot -13.7623 -13.0969
ltoes 18.3894
1177
root 24.0781 23.8725 9.79372 487.945 -86.0674 239.505
lowerback 13.6777 0.83727 -1.54427
upperback 2.29502 0.882637 1.85807
thorax -5.30031 0.428153 2.67608
lowerneck -16.194 -1.5285 -7.61854
upperneck 30.1822 -2.56535 6.01534
head 12.9376 -1.4581 3.19861
rclavicle 2.24875e-015 4.39811e-015
rhumerus -27.9114 3.88991 -87.898
rradius 44.1146
rwrist -16.0206
rhand -21.6642 12.5799
rfingers 7.12502
rthumb 4.73299 -17.3472
lclavicle 2.24875e-015 4.39811e-015
lhumerus -26.0974 -1.84635 86.7699
lradius 36.9252
lwrist 6.25455
lhand -24.1464 19.9671
lfingers 7.12502
lthumb 2.33599 49.934
rfemur -30.1962 -6.51281 24.8418
rtibia 70.5339
rfoot -15.4081 -4.67532
rtoes -0.354415
lfemur -25.2846 3.21081 -18.1888
ltibia 38.0495
lfoot -13.7298 -12.7991
ltoes 14.6822
1178
root 23.9988 23.9311 9.79827 488.135 -86.3538 239.226
lowerback 13.6117 0.75575 -1.75956
upperback 2.2375 0.748532 1.86516
thorax -5.31971 0.368577 2.83026
lowerneck -16.1 -1.52569 -7.6542
upperneck 30.2912 -2.52382 5.86236
head 12.9582 -1.47041 3.15305
rclavicle -8.7077e-015 -1.27874e-014
rhumerus -28.1214 4.18666 -87.8294
rradius 44.2592
rwrist -15.9843
rhand -21.9571 12.3117
rfingers 7.12502
rthumb 4.45024 -17.6215
lclavicle -8.7077e-015 -1.27874e-014
lhumerus -26.1794 -1.96443 86.8598
lradius 37.0601
lwrist 6.04505
lhand -24.1511 19.9321
lfingers 7.12502
lthumb 2.33142 49.8991
rfemur -30.64 -6.26421 24.6898
rtibia 69.7097
rfoot -15.928 -4.18993
rtoes -1.67562
lfemur -24.2013 2.22706 -18.2368
ltibia 36.9364
lfoot -13.0073 -12.7552
ltoes 23.3673
1179
root 23.9181 23.9854 9.8066 488.352 -86.5317 238.827
lowerback 13.5996 0.652616 -1.7254
upperback 2.23173 0.612215 1.75646
thorax -5.30893 0.300686 2.72046
lowerneck -15.9618 -1.42417 -7.40765
upperneck 30.3096 -2.41388 5.688
head 12.9206 -1.42133 3.058
rclavicle -4.52856e-015 1.35422e-015
rhumerus -28.1849 4.09865 -87.9032
rradius 44.2745
rwrist -15.5241
rhand -22.1608 11.6783
rfingers 7.12502
rthumb 4.25352 -18.259
lclavicle -4.52856e-015 1.35422e-015
lhumerus -26.2473 -2.22825 86.7804
lradius 37.2805
lwrist 6.03189
lhand -24.1628 20.0666
lfingers 7.12502
lthumb 2.32014 50.0337
rfemur -30.9123 -6.00439 24.5853
rtibia 68.7256
rfoot -16.6645 -3.63455
rtoes -2.68449
lfemur -22.9623 1.27681 -18.1664
ltibia 35.841
lfoot -12.6322 -12.7238
ltoes 30.0597
1180
root 23.8406 24.0216 9.80265 487.792 -86.5508 239.393
lowerback 13.3875 0.607991 -1.6822
upperback 2.2213 0.562821 1.73812
thorax -5.19942 0.275296 2.68507
lowerneck -15.799 -1.34295 -7.17713
upperneck 30.2295 -2.31683 5.50746
head 12.839 -1.37705 2.95929
rclavicle 8.21229e-015 1.43373e-014
rhumerus -28.0358 3.1671 -87.3784
rradius 43.7399
rwrist -12.089
rhand -19.8838 12.4197
rfingers 7.12502
rthumb 6.45195 -17.462
lclavicle 8.21229e-015 1.43373e-014
lhumerus -26.2214 -2.61191 86.8239
lradius 37.5234
lwrist 6.165
lhand -24.0842 20.3226
lfingers 7.12502
lthumb 2.39602 50.2889
rfemur -31.4261 -5.54266 24.7055
rtibia 67.6768
rfoot -17.4432 -3.11191
rtoes -3.34124
lfemur -22.0555 1.12954 -18.1506
ltibia 34.7716
lfoot -12.7596 -12.6212
ltoes 28.9338
1181
root 23.7609 24.0459 9.80139 486.905 -86.6321 240.436
lowerback 13.048 0.525575 -1.79948
upperback 2.16261 0.450883 1.83126
thorax -5.06918 0.223936 2.86888
lowerneck -15.8698 -1.32135 -7.35287
upperneck 30.3796 -2.26034 5.56615
head 12.9146 -1.36901 3.02531
rclavicle 3.92755e-015 1.83814e-014
rhumerus -28.1866 4.16728 -87.558
rradius 44.1996
rwrist -14.5216
rhand -21.0791 11.8036
rfingers 7.12502
rthumb 5.29802 -18.1101
lclavicle 3.92755e-015 1.83814e-014
lhumerus -26.2555 -3.04529 86.9889
lradius 37.8384
lwrist 6.80952
lhand -23.9272 20.2917
lfingers 7.12502
lthumb 2.54767 50.2562
rfemur -32.1036 -5.16253 24.745
rtibia 66.5603
rfoot -18.1319 -2.49685
rtoes -4.34111
lfemur -21.423 1.01946 -18.2829
ltibia 33.7667
lfoot -13.0323 -12.2987
ltoes 25.4744
1182
root 23.6819 24.066 9.80675 487.106 -86.8701 240.193
lowerback 12.9674 0.45302 -2.01818
upperback 2.10261 0.331512 1.87896
thorax -5.08186 0.171521 3.06394
lowerneck -15.9966 -1.36013 -7.76637
upperneck 30.6056 -2.29129 5.83935
head 13.0472 -1.40101 3.20643
rclavicle -4.6528e-015 1.08338e-014
rhumerus -28.3174 4.34969 -87.3717
rradius 44.2756
rwrist -15.1934
rhand -20.5929 11.9615
rfingers 7.12502
rthumb 5.76739 -17.94
lclavicle -4.6528e-015 1.08338e-014
lhumerus -26.3507 -3.47064 87.1797
lradius 38.1068
lwrist 7.46958
lhand -24.2861 20.1725
lfingers 7.12502
lthumb 2.20106 50.1409
rfemur -32.5004 -4.76048 24.5099
rtibia 65.3426
rfoot -18.8094 -1.64181
rtoes -3.15607
lfemur -20.5961 0.662593 -18.5617
ltibia 32.8417
lfoot -13.1639 -11.9925
ltoes 22.767
